<svg xmlns="http://www.w3.org/2000/svg" viewBox="0 0 512 512" width="512" height="512">
  <defs>
    <clipPath id="c"><rect x="24" y="24" width="464" height="464" rx="88" ry="88"/></clipPath>
  </defs>
  <rect x="24" y="24" width="464" height="464" rx="88" ry="88" fill="#F2F0E4"/>
  <g clip-path="url(#c)">
    <rect x="24" y="24" width="464" height="102" fill="#000"/>
    <rect x="24" y="126" width="464" height="84" fill="#101010"/>
    <rect x="24" y="210" width="464" height="74" fill="#222"/>
    <rect x="24" y="284" width="464" height="74" fill="#241C18"/>
    <rect x="24" y="358" width="464" height="130" fill="#2A2A2A"/>
    <line x1="24" y1="284" x2="488" y2="284" stroke="#F25C05" stroke-width="1" opacity="0.09"/>
    <line x1="24" y1="358" x2="488" y2="358" stroke="#F25C05" stroke-width="1" opacity="0.09"/>
    <path d="M256 61 Q256 160 236 265 Q220 310 220 330 Q220 358 256 358 Q292 358 292 330 Q292 310 276 265 Q256 160 256 61Z" fill="#F25C05" fill-opacity="0.94"/>
  </g>
</svg>
